<?xml version="1.0" encoding="utf-8"?>
<!-- Generator: Adobe Illustrator 14.0.0, SVG Export Plug-In . SVG Version: 6.00 Build 43363)  -->
<!DOCTYPE svg PUBLIC "-//W3C//DTD SVG 1.1//EN" "http://www.w3.org/Graphics/SVG/1.1/DTD/svg11.dtd">
<svg version="1.1" id="Шар_1" xmlns="http://www.w3.org/2000/svg" xmlns:xlink="http://www.w3.org/1999/xlink" x="0px" y="0px"
	 width="614.665px" height="110px" viewBox="0 0 614.665 110" enable-background="new 0 0 614.665 110" xml:space="preserve">
<rect x="219.331" y="199.831" fill="#E8E8E8" width="658" height="166"/>
<g>
	<path fill="none" d="M14.423,1c0.812,0,1.933,0.332,3.211,1.609l9.82,9.82l5.66-5.664l17.692,17.696c0,0,1.16,1.375,0.48,2.703
		l6.981,3.336l6.992,3.34l4.895,2.339l18.57,8.879l12.121,5.793c0,0,3.328,1.981,4.566,6.934l0.609,1.82l7.637,3.82
		c1.059,1.77-1.461,2.961-1.461,2.961l-4.664-2.25l0.691,2.066L80.169,53.605L56.294,42.883l-5.445-2.446l-1.739-0.781l-0.527-0.234
		l-0.609,0.605l-1.59,1.594l0.234,0.523l0.051,0.118l2.441,5.437l11.446,25.524l12.586,28.063l-1.41-0.461l1.965,3.879
		c0.477,0.938,0.535,1.398,0.242,1.398c-0.375,0-1.32-0.754-2.691-2.207c-2.438-2.59-4.414-4.688-4.414-4.688L64.692,98.5
		c-4.953-1.238-6.988-4.512-6.988-4.512l-5.82-12.094l-6.875-14.285l-2.781-5.781l-4.965-10.324l-3.352-6.965
		c-0.351,0.18-0.723,0.246-1.074,0.246c-0.984,0-1.848-0.512-1.848-0.512L13.298,26.582l5.66-5.66l-9.816-9.821
		C6.485,8.449,8.345,6.058,8.345,6.058l2.832-2.832l1.847-1.843C13.024,1.383,13.548,1,14.423,1H1.833v87.691
		c0-1.086,0.414-2.172,1.242-3l9.004-9.004l14.25,14.254c0.414,0.418,1.086,0.418,1.5,0c0.414-0.414,0.414-1.082,0-1.5
		L13.575,75.188l4.5-4.5l8.254,8.25c0.414,0.418,1.086,0.418,1.5,0c0.414-0.414,0.414-1.086,0-1.5l-8.25-8.25l3-3l14.254,14.25
		c0.414,0.418,1.086,0.418,1.5,0c0.414-0.414,0.414-1.082,0-1.5L24.079,64.684l4.5-4.5l8.254,8.25c0.414,0.414,1.086,0.414,1.5,0
		s0.414-1.086,0-1.5l-8.25-8.25l3-3.005l3.59,3.591l12.289,25.543l-23.379,23.387c-1.66,1.656-4.348,1.656-6.004,0L3.075,91.691
		c-0.828-0.828-1.242-1.914-1.242-3V110h113V1H14.423z M62.731,28.312l-1.141-1.14l4.5-4.5l13.887,13.882L62.731,28.312z
		 M108.106,25.676L91.646,42.133l-10.328-4.938c0.195-0.039,0.379-0.117,0.531-0.269c0.418-0.414,0.418-1.086,0-1.5L67.595,21.172
		l3.004-3l8.25,8.25c0.414,0.414,1.086,0.414,1.496,0.004c0.414-0.418,0.414-1.086,0-1.5l-8.25-8.254l4.5-4.5l14.254,14.254
		c0.414,0.414,1.086,0.414,1.5,0c0.418-0.418,0.418-1.086,0-1.5L78.095,10.672l7.504-7.504c1.66-1.656,4.348-1.656,6.004,0
		l16.504,16.504C109.763,21.332,109.763,24.019,108.106,25.676z M63.505,67.947l-6.649-14.829l2.485,2.489
		c0.414,0.41,1.086,0.41,1.5,0c0.418-0.418,0.418-1.086,0-1.504l-6.426-6.426l-2.074-4.625l24.883,11.176L63.505,67.947z"/>
	<path fill="#FFFFFF" d="M53.415,48.678l6.426,6.426c0.418,0.418,0.418,1.086,0,1.504c-0.414,0.41-1.086,0.41-1.5,0l-2.485-2.489
		l6.649,14.829l13.719-13.719L51.341,44.053L53.415,48.678z"/>
	<polygon fill="#FFFFFF" points="61.591,27.172 62.731,28.312 79.978,36.554 66.091,22.672 	"/>
	<path fill="#FFFFFF" d="M91.603,3.168c-1.656-1.656-4.344-1.656-6.004,0l-7.504,7.504l14.254,14.254c0.418,0.414,0.418,1.082,0,1.5
		c-0.414,0.414-1.086,0.414-1.5,0L76.595,12.172l-4.5,4.5l8.25,8.254c0.414,0.414,0.414,1.082,0,1.5
		c-0.41,0.41-1.082,0.41-1.496-0.004l-8.25-8.25l-3.004,3l14.254,14.254c0.418,0.414,0.418,1.086,0,1.5
		c-0.152,0.152-0.336,0.23-0.531,0.269l10.328,4.938l16.461-16.457c1.656-1.657,1.656-4.344,0-6.004L91.603,3.168z"/>
	<path fill="#FFFFFF" d="M19.579,108.199c1.656,1.656,4.344,1.656,6.004,0l23.379-23.387L36.673,59.27l-3.59-3.591l-3,3.005
		l8.25,8.25c0.414,0.414,0.414,1.086,0,1.5s-1.086,0.414-1.5,0l-8.254-8.25l-4.5,4.5l14.254,14.254c0.414,0.418,0.414,1.086,0,1.5
		c-0.414,0.418-1.086,0.418-1.5,0l-14.254-14.25l-3,3l8.25,8.25c0.414,0.414,0.414,1.086,0,1.5c-0.414,0.418-1.086,0.418-1.5,0
		l-8.254-8.25l-4.5,4.5l14.254,14.254c0.414,0.418,0.414,1.086,0,1.5c-0.414,0.418-1.086,0.418-1.5,0l-14.25-14.254l-9.004,9.004
		c-0.828,0.828-1.242,1.914-1.242,3s0.414,2.172,1.242,3L19.579,108.199z"/>
	<path fill="#4B9FD3" d="M11.177,3.226L8.345,6.058c0,0-1.86,2.391,0.797,5.043l9.816,9.821l-5.66,5.66l17.691,17.691
		c0,0,0.864,0.512,1.848,0.512c0.351,0,0.723-0.066,1.074-0.246l3.352,6.965l4.965,10.324l2.781,5.781l6.875,14.285l5.82,12.094
		c0,0,2.035,3.273,6.988,4.512l2.141,0.707c0,0,1.977,2.098,4.414,4.688c1.371,1.453,2.316,2.207,2.691,2.207
		c0.293,0,0.234-0.461-0.242-1.398l-1.965-3.879l1.41,0.461L60.556,73.223L49.11,47.699l-2.441-5.437l-0.051-0.118l-0.234-0.523
		l1.59-1.594l0.609-0.605l0.527,0.234l1.739,0.781l5.445,2.446l23.875,10.722l28.055,12.598l-0.691-2.066l4.664,2.25
		c0,0,2.52-1.191,1.461-2.961l-7.637-3.82l-0.609-1.82c-1.238-4.953-4.566-6.934-4.566-6.934l-12.121-5.793l-18.57-8.879
		l-4.895-2.339l-6.992-3.34l-6.981-3.336c0.68-1.328-0.48-2.703-0.48-2.703L33.114,6.765l-5.66,5.664l-9.82-9.82
		C16.356,1.332,15.235,1,14.423,1c-0.875,0-1.399,0.383-1.399,0.383L11.177,3.226z"/>
</g>
<g>
	<path fill="#4D9FD3" d="M124.338,78.56V33.204h34.408v11.968h-20.672V78.56H124.338z"/>
	<path fill="#4D9FD3" d="M174.931,79.376c-2.584,0-4.988-0.397-7.208-1.19c-2.222-0.792-4.148-1.926-5.78-3.4
		c-1.632-1.473-2.924-3.275-3.876-5.406c-0.952-2.13-1.428-4.556-1.428-7.276c0-2.356,0.431-4.59,1.292-6.698
		c0.86-2.108,2.084-3.933,3.672-5.474c1.586-1.541,3.468-2.765,5.644-3.672c2.176-0.907,4.601-1.36,7.276-1.36
		c2.402,0,4.646,0.42,6.732,1.258c2.084,0.839,3.887,2.052,5.406,3.638c1.518,1.587,2.72,3.525,3.604,5.814
		c0.884,2.29,1.326,4.886,1.326,7.786v2.516h-22.304c0.362,1.043,1.122,1.995,2.278,2.856c1.156,0.862,2.754,1.292,4.794,1.292
		c0.453,0,1.031-0.056,1.734-0.17c0.703-0.113,1.417-0.272,2.142-0.476c0.725-0.204,1.417-0.442,2.074-0.714
		c0.656-0.272,1.19-0.589,1.598-0.952l5.032,7.548c-0.816,0.68-1.78,1.282-2.89,1.802c-1.111,0.521-2.278,0.952-3.502,1.292
		s-2.494,0.588-3.808,0.748C177.423,79.296,176.154,79.376,174.931,79.376z M179.962,58.16c-0.091-0.362-0.238-0.771-0.442-1.224
		c-0.204-0.453-0.51-0.884-0.918-1.292c-0.408-0.408-0.941-0.748-1.598-1.02c-0.658-0.272-1.485-0.408-2.482-0.408
		c-0.952,0-1.746,0.136-2.38,0.408c-0.636,0.272-1.156,0.612-1.564,1.02c-0.408,0.408-0.726,0.839-0.952,1.292
		c-0.228,0.454-0.386,0.862-0.476,1.224H179.962z"/>
	<path fill="#4D9FD3" d="M211.991,79.376c-2.902,0-5.498-0.465-7.786-1.394c-2.29-0.929-4.216-2.187-5.78-3.774
		c-1.564-1.586-2.766-3.422-3.604-5.508c-0.839-2.085-1.258-4.284-1.258-6.596s0.419-4.499,1.258-6.562
		c0.838-2.062,2.04-3.887,3.604-5.474c1.564-1.586,3.49-2.844,5.78-3.774c2.289-0.929,4.884-1.394,7.786-1.394
		c2.901,0,5.508,0.465,7.82,1.394c2.312,0.93,4.25,2.188,5.814,3.774c1.564,1.587,2.765,3.412,3.604,5.474
		c0.838,2.063,1.258,4.25,1.258,6.562s-0.42,4.511-1.258,6.596c-0.839,2.085-2.04,3.921-3.604,5.508
		c-1.564,1.587-3.502,2.845-5.814,3.774S214.892,79.376,211.991,79.376z M211.991,68.564c1.904,0,3.366-0.612,4.386-1.836
		s1.53-2.765,1.53-4.624c0-1.813-0.51-3.332-1.53-4.556c-1.02-1.224-2.482-1.836-4.386-1.836s-3.355,0.612-4.352,1.836
		c-0.998,1.224-1.496,2.744-1.496,4.556c0,1.859,0.499,3.4,1.496,4.624C208.635,67.952,210.087,68.564,211.991,68.564z"/>
	<path fill="#4D9FD3" d="M247.35,79.376c-3.491,0-6.585-0.488-9.282-1.462c-2.697-0.974-4.839-2.21-6.426-3.706l5.44-7.14
		c0.725,0.544,1.541,1.01,2.448,1.394c0.906,0.386,1.813,0.714,2.72,0.986c0.906,0.272,1.802,0.465,2.686,0.578
		c0.884,0.114,1.688,0.17,2.414,0.17c1.541,0,2.595-0.147,3.162-0.442c0.566-0.294,0.85-0.69,0.85-1.19
		c0-0.544-0.33-1.02-0.986-1.428c-0.658-0.408-1.802-0.612-3.434-0.612h-6.12v-8.976h6.12c0.861,0,1.553-0.044,2.074-0.136
		c0.521-0.09,0.906-0.227,1.156-0.408c0.249-0.181,0.408-0.374,0.476-0.578c0.068-0.204,0.102-0.442,0.102-0.714
		c0-0.498-0.317-0.895-0.952-1.19c-0.635-0.294-1.542-0.442-2.72-0.442c-3.763,0-6.868,1.111-9.316,3.332l-5.78-6.868
		c1.677-1.632,3.751-2.969,6.222-4.012c2.47-1.042,5.224-1.564,8.262-1.564c5.756-0.045,10.006,0.782,12.75,2.482
		c2.742,1.7,4.136,3.933,4.182,6.698c0,0.908-0.204,1.757-0.612,2.55c-0.408,0.793-0.986,1.53-1.734,2.21
		c-0.748,0.68-1.632,1.258-2.652,1.734s-2.12,0.805-3.298,0.986c1.042,0.091,2.096,0.318,3.162,0.68
		c1.064,0.363,2.017,0.874,2.856,1.53c0.838,0.658,1.53,1.452,2.074,2.38c0.544,0.93,0.816,1.961,0.816,3.094
		c0,1.496-0.386,2.856-1.156,4.08c-0.771,1.224-1.882,2.278-3.332,3.162c-1.451,0.884-3.208,1.576-5.27,2.074
		C252.188,79.126,249.888,79.376,247.35,79.376z"/>
	<path fill="#4D9FD3" d="M284.614,79.376c-2.584,0-4.988-0.397-7.208-1.19c-2.222-0.792-4.148-1.926-5.78-3.4
		c-1.632-1.473-2.924-3.275-3.876-5.406c-0.952-2.13-1.428-4.556-1.428-7.276c0-2.356,0.431-4.59,1.292-6.698
		c0.86-2.108,2.084-3.933,3.672-5.474c1.586-1.541,3.468-2.765,5.644-3.672c2.176-0.907,4.6-1.36,7.276-1.36
		c2.402,0,4.646,0.42,6.732,1.258c2.084,0.839,3.886,2.052,5.405,3.638c1.519,1.587,2.721,3.525,3.604,5.814
		c0.884,2.29,1.326,4.886,1.326,7.786v2.516H278.97c0.362,1.043,1.122,1.995,2.278,2.856c1.156,0.862,2.754,1.292,4.794,1.292
		c0.453,0,1.03-0.056,1.734-0.17c0.702-0.113,1.416-0.272,2.142-0.476c0.725-0.204,1.416-0.442,2.074-0.714
		c0.656-0.272,1.189-0.589,1.598-0.952l5.032,7.548c-0.816,0.68-1.779,1.282-2.89,1.802c-1.111,0.521-2.278,0.952-3.502,1.292
		c-1.225,0.34-2.494,0.588-3.809,0.748C287.106,79.296,285.838,79.376,284.614,79.376z M289.646,58.16
		c-0.092-0.362-0.238-0.771-0.442-1.224c-0.204-0.453-0.51-0.884-0.918-1.292s-0.941-0.748-1.598-1.02
		c-0.658-0.272-1.485-0.408-2.482-0.408c-0.952,0-1.746,0.136-2.38,0.408c-0.636,0.272-1.156,0.612-1.564,1.02
		c-0.408,0.408-0.726,0.839-0.952,1.292c-0.228,0.454-0.386,0.862-0.476,1.224H289.646z"/>
	<path fill="#4D9FD3" d="M337.042,78.56V60.676l-6.324,17.884h-6.664l-6.324-17.884V78.56H305.49V45.716h16.209l5.652,15.844
		l5.721-15.844h16.21V78.56H337.042z"/>
	<path fill="#FFFFFF" d="M372.062,79.376c-2.584,0-4.987-0.397-7.208-1.19c-2.222-0.792-4.148-1.926-5.78-3.4
		c-1.632-1.473-2.924-3.275-3.876-5.406c-0.952-2.13-1.428-4.556-1.428-7.276c0-2.356,0.43-4.59,1.292-6.698
		c0.86-2.108,2.084-3.933,3.672-5.474c1.586-1.541,3.468-2.765,5.644-3.672c2.177-0.907,4.601-1.36,7.276-1.36
		c2.402,0,4.646,0.42,6.732,1.258c2.084,0.839,3.886,2.052,5.405,3.638c1.519,1.587,2.721,3.525,3.604,5.814
		c0.884,2.29,1.326,4.886,1.326,7.786v2.516h-22.305c0.362,1.043,1.122,1.995,2.278,2.856c1.156,0.862,2.754,1.292,4.794,1.292
		c0.453,0,1.03-0.056,1.734-0.17c0.702-0.113,1.416-0.272,2.142-0.476c0.725-0.204,1.416-0.442,2.074-0.714
		c0.656-0.272,1.189-0.589,1.598-0.952l5.032,7.548c-0.816,0.68-1.779,1.282-2.89,1.802c-1.111,0.521-2.278,0.952-3.502,1.292
		c-1.225,0.34-2.494,0.588-3.809,0.748C374.554,79.296,373.285,79.376,372.062,79.376z M377.094,58.16
		c-0.092-0.362-0.238-0.771-0.442-1.224c-0.204-0.453-0.51-0.884-0.918-1.292s-0.941-0.748-1.598-1.02
		c-0.658-0.272-1.485-0.408-2.482-0.408c-0.952,0-1.746,0.136-2.38,0.408c-0.636,0.272-1.156,0.612-1.564,1.02
		c-0.407,0.408-0.726,0.839-0.952,1.292c-0.227,0.454-0.385,0.862-0.476,1.224H377.094z"/>
	<path fill="#FFFFFF" d="M413.202,78.56l-5.645-10.608l-2.38,3.196v7.412h-12.239V45.716h12.239v11.696l7.549-11.696h14.756
		l-11.288,14.96L428.23,78.56H413.202z"/>
	<path fill="#FFFFFF" d="M446.317,79.376c-2.584,0-4.998-0.408-7.242-1.224c-2.244-0.816-4.193-1.972-5.848-3.468
		c-1.655-1.496-2.958-3.309-3.91-5.44c-0.952-2.13-1.428-4.51-1.428-7.14c0-2.584,0.476-4.94,1.428-7.072
		c0.952-2.13,2.255-3.944,3.91-5.44c1.654-1.496,3.604-2.652,5.848-3.468s4.658-1.224,7.242-1.224c1.858,0,3.547,0.193,5.066,0.578
		c1.518,0.386,2.855,0.874,4.012,1.462c1.156,0.59,2.142,1.258,2.958,2.006c0.815,0.748,1.45,1.462,1.904,2.142l-7.889,7.412
		c-0.499-0.77-1.213-1.428-2.142-1.972c-0.93-0.544-2.052-0.816-3.366-0.816c-1.724,0-3.229,0.534-4.521,1.598
		c-1.292,1.066-1.938,2.664-1.938,4.794c0,2.131,0.646,3.74,1.938,4.828s2.798,1.632,4.521,1.632c1.314,0,2.437-0.283,3.366-0.85
		c0.929-0.566,1.643-1.234,2.142-2.006l7.889,7.48c-0.454,0.68-1.089,1.383-1.904,2.108c-0.816,0.726-1.802,1.394-2.958,2.006
		c-1.156,0.612-2.494,1.111-4.012,1.496C449.864,79.183,448.176,79.376,446.317,79.376z"/>
	<path fill="#FFFFFF" d="M486.505,78.56V56.324h-9.996V78.56H464.27V45.716h34.476V78.56H486.505z"/>
	<path fill="#FFFFFF" d="M521.594,79.376c-2.584,0-4.987-0.397-7.208-1.19c-2.222-0.792-4.148-1.926-5.78-3.4
		c-1.632-1.473-2.924-3.275-3.876-5.406c-0.952-2.13-1.428-4.556-1.428-7.276c0-2.356,0.43-4.59,1.292-6.698
		c0.86-2.108,2.084-3.933,3.672-5.474c1.586-1.541,3.468-2.765,5.644-3.672c2.177-0.907,4.601-1.36,7.276-1.36
		c2.402,0,4.646,0.42,6.732,1.258c2.084,0.839,3.886,2.052,5.405,3.638c1.519,1.587,2.721,3.525,3.604,5.814
		c0.884,2.29,1.326,4.886,1.326,7.786v2.516h-22.305c0.362,1.043,1.122,1.995,2.278,2.856c1.156,0.862,2.754,1.292,4.794,1.292
		c0.453,0,1.03-0.056,1.734-0.17c0.702-0.113,1.416-0.272,2.142-0.476c0.725-0.204,1.416-0.442,2.074-0.714
		c0.656-0.272,1.189-0.589,1.598-0.952l5.032,7.548c-0.816,0.68-1.779,1.282-2.89,1.802c-1.111,0.521-2.278,0.952-3.502,1.292
		c-1.225,0.34-2.494,0.588-3.809,0.748C524.086,79.296,522.817,79.376,521.594,79.376z M526.626,58.16
		c-0.092-0.362-0.238-0.771-0.442-1.224c-0.204-0.453-0.51-0.884-0.918-1.292s-0.941-0.748-1.598-1.02
		c-0.658-0.272-1.485-0.408-2.482-0.408c-0.952,0-1.746,0.136-2.38,0.408c-0.636,0.272-1.156,0.612-1.564,1.02
		c-0.407,0.408-0.726,0.839-0.952,1.292c-0.227,0.454-0.385,0.862-0.476,1.224H526.626z"/>
	<path fill="#FFFFFF" d="M563.957,79.376c-1.723,0-3.355-0.317-4.896-0.952c-1.542-0.634-2.992-1.745-4.353-3.332v15.98H542.47
		V45.716h12.239v3.468c1.314-1.586,2.754-2.697,4.318-3.332c1.564-0.634,3.207-0.952,4.93-0.952c2.04,0,3.933,0.374,5.679,1.122
		c1.744,0.748,3.264,1.848,4.556,3.298c1.292,1.452,2.312,3.242,3.06,5.372c0.748,2.131,1.122,4.602,1.122,7.412
		c0,2.812-0.374,5.293-1.122,7.446c-0.748,2.153-1.768,3.956-3.06,5.406c-1.292,1.451-2.812,2.55-4.556,3.298
		C567.89,79.002,565.997,79.376,563.957,79.376z M559.741,68.564c1.632,0,3.061-0.555,4.284-1.666
		c1.224-1.11,1.836-2.708,1.836-4.794c0-2.04-0.612-3.615-1.836-4.726c-1.224-1.11-2.652-1.666-4.284-1.666
		c-0.771,0-1.655,0.193-2.652,0.578c-0.997,0.386-1.791,0.941-2.38,1.666v8.364c0.544,0.68,1.326,1.224,2.347,1.632
		C558.075,68.36,558.97,68.564,559.741,68.564z"/>
	<path fill="#FFFFFF" d="M589.32,78.56V56.324h-8.772V45.716h29.648v10.608h-8.636V78.56H589.32z"/>
</g>
</svg>
